<svg width="63" height="63" viewBox="0 0 63 63" fill="none" xmlns="http://www.w3.org/2000/svg">
    <path d="M53.1562 15.75H43.3125C43.3125 12.6171 42.068 9.61257 39.8527 7.3973C37.6374 5.18203 34.6329 3.9375 31.5 3.9375C28.3671 3.9375 25.3626 5.18203 23.1473 7.3973C20.932 9.61257 19.6875 12.6171 19.6875 15.75H9.84375C8.79946 15.75 7.79794 16.1648 7.05952 16.9033C6.32109 17.6417 5.90625 18.6432 5.90625 19.6875V49.2188C5.90625 50.263 6.32109 51.2646 7.05952 52.003C7.79794 52.7414 8.79946 53.1562 9.84375 53.1562H53.1562C54.2005 53.1562 55.2021 52.7414 55.9405 52.003C56.6789 51.2646 57.0938 50.263 57.0938 49.2188V19.6875C57.0938 18.6432 56.6789 17.6417 55.9405 16.9033C55.2021 16.1648 54.2005 15.75 53.1562 15.75ZM31.5 7.875C33.5886 7.875 35.5916 8.70468 37.0685 10.1815C38.5453 11.6584 39.375 13.6614 39.375 15.75H23.625C23.625 13.6614 24.4547 11.6584 25.9315 10.1815C27.4084 8.70468 29.4114 7.875 31.5 7.875ZM53.1562 49.2188H9.84375V19.6875H19.6875V23.625C19.6875 24.1471 19.8949 24.6479 20.2641 25.0171C20.6333 25.3863 21.1341 25.5938 21.6562 25.5938C22.1784 25.5938 22.6792 25.3863 23.0484 25.0171C23.4176 24.6479 23.625 24.1471 23.625 23.625V19.6875H39.375V23.625C39.375 24.1471 39.5824 24.6479 39.9516 25.0171C40.3208 25.3863 40.8216 25.5938 41.3438 25.5938C41.8659 25.5938 42.3667 25.3863 42.7359 25.0171C43.1051 24.6479 43.3125 24.1471 43.3125 23.625V19.6875H53.1562V49.2188Z" fill="white"/>
</svg>
