<svg width="67" height="67" viewBox="0 0 67 67" fill="none" xmlns="http://www.w3.org/2000/svg">
<g clip-path="url(#clip0_230_231)">
<path d="M30.6413 66.5672C28.4172 67.2891 25.9974 67.0979 23.9142 66.0356C21.831 64.9734 20.2552 63.1271 19.5333 60.9029C18.8114 58.6788 19.0026 56.259 20.0649 54.1758C21.1271 52.0926 22.9734 50.5168 25.1976 49.7949C27.4217 49.073 29.8416 49.2642 31.9247 50.3265C34.0079 51.3887 35.5837 53.235 36.3056 55.4592C37.0275 57.6833 36.8363 60.1032 35.774 62.1863C34.7118 64.2695 32.8655 65.8453 30.6413 66.5672ZM48.9379 58.5188C60.2358 54.8478 69.359 41.8219 64.8197 27.8552C60.2805 13.8885 45.2445 8.71552 33.9495 12.3866C32.6815 12.798 31.6163 13.6741 30.9679 14.8388C30.3195 16.0036 30.136 17.3705 30.4543 18.665L31.61 23.3606C31.7826 24.0656 32.0988 24.7274 32.5389 25.3046C32.9789 25.8819 33.5333 26.3621 34.1674 26.7153C34.8015 27.0685 35.5016 27.2871 36.224 27.3574C36.9464 27.4277 37.6756 27.3481 38.3659 27.1238L38.8181 26.9758C44.0134 25.2841 48.8458 28.3828 50.183 32.6122C51.5928 36.8192 49.5018 42.1653 44.3037 43.8542L43.8515 44.005C43.1614 44.2291 42.5249 44.5931 41.9819 45.0744C41.4388 45.5556 41.0009 46.1436 40.6954 46.8018C40.3899 47.4599 40.2234 48.174 40.2064 48.8994C40.1894 49.6248 40.3221 50.3459 40.5964 51.0176L42.4194 55.4955C42.923 56.7296 43.8752 57.7274 45.0844 58.2883C46.2937 58.8491 47.6704 58.9315 48.9379 58.5188ZM29.5023 36.2358L21.8895 4.89093C21.6789 4.03366 21.2939 3.22901 20.7584 2.52724C20.2229 1.82547 19.5484 1.24166 18.7772 0.812269C18.0059 0.382881 17.1543 0.117141 16.2758 0.0316487C15.3972 -0.0538436 14.5104 0.0427481 13.6708 0.315391L5.42979 2.9926C4.59028 3.26535 3.81602 3.70828 3.15539 4.29371C2.49475 4.87914 1.96191 5.59449 1.59017 6.3951C1.21842 7.19571 1.01574 8.06437 0.99479 8.94683C0.973841 9.82929 1.13507 10.7066 1.46841 11.5239L13.735 41.3585C14.3479 42.8601 15.5063 44.0741 16.9776 44.7566C18.4488 45.4392 20.1238 45.5396 21.6661 45.0379L25.2534 43.8738C26.7951 43.3722 28.0899 42.306 28.8781 40.8893C29.6662 39.4726 29.8892 37.8101 29.5023 36.2358Z" fill="#E4094D"/>
</g>
<defs>
<clipPath id="clip0_230_231">
<rect width="67" height="67" fill="white"/>
</clipPath>
</defs>
</svg>
