<svg width="63" height="63" viewBox="0 0 63 63" fill="none" xmlns="http://www.w3.org/2000/svg">
    <path d="M16.4021 4.11099L9.58402 5.81396L4.25732 18.2478L8.35355 20.9795L11.7324 14.2242L13.8304 14.8271L11.9761 33.2965H30.171L31.303 22.4807L31.4138 21.484H31.9675L31.303 14.8271L33.4071 14.2242L36.7786 20.9795L40.8761 18.2478L35.5481 5.81396L28.7313 4.11099C28.0546 4.58718 27.2302 4.87511 26.3319 5.08922C25.1753 5.36115 23.871 5.48789 22.5667 5.48789C21.2624 5.48789 19.9581 5.36115 18.8015 5.08922C17.9032 4.87511 17.0788 4.58841 16.4021 4.11099ZM33.4071 23.6988L33.2226 25.4215H55.2233L55.0388 23.6988H33.4071ZM32.9888 27.6363L29.7034 58.8902H37.4185L43.1401 32.2014H45.3058L51.0274 58.8902H58.7425L55.4571 27.6363H32.9888Z" fill="white"/>
</svg>
