<svg width="63" height="63" viewBox="0 0 63 63" fill="none" xmlns="http://www.w3.org/2000/svg">
    <path d="M28.875 27.5625C28.875 23.7334 30.3961 20.0612 33.1036 17.3536C35.8112 14.6461 39.4834 13.125 43.3125 13.125C47.1416 13.125 50.8138 14.6461 53.5214 17.3536C56.2289 20.0612 57.75 23.7334 57.75 27.5625C57.75 31.3916 56.2289 35.0638 53.5214 37.7714C50.8138 40.4789 47.1416 42 43.3125 42C39.4834 42 35.8112 40.4789 33.1036 37.7714C30.3961 35.0638 28.875 31.3916 28.875 27.5625Z" stroke="white" stroke-width="1.5"/>
    <path opacity="0.5" d="M43.3125 52.5V42M43.3125 52.5H51.1875M43.3125 52.5H35.4375" stroke="white" stroke-width="1.5" stroke-linecap="round" stroke-linejoin="round"/>
    <path d="M5.25 28.875V26.9062C4.72786 26.9062 4.2271 27.1137 3.85788 27.4829C3.48867 27.8521 3.28125 28.3529 3.28125 28.875H5.25ZM21 28.875H22.9688C22.9688 28.3529 22.7613 27.8521 22.3921 27.4829C22.0229 27.1137 21.5221 26.9062 21 26.9062V28.875ZM5.25 30.8438H21V26.9062H5.25V30.8438ZM19.0312 28.875V44.625H22.9688V28.875H19.0312ZM7.21875 44.625V28.875H3.28125V44.625H7.21875ZM13.125 50.5312C11.5586 50.5312 10.0563 49.909 8.94865 48.8013C7.84101 47.6937 7.21875 46.1914 7.21875 44.625H3.28125C3.28125 47.2357 4.31836 49.7395 6.16442 51.5856C8.01048 53.4316 10.5143 54.4688 13.125 54.4688V50.5312ZM19.0312 44.625C19.0312 46.1914 18.409 47.6937 17.3013 48.8013C16.1937 49.909 14.6914 50.5312 13.125 50.5312V54.4688C14.4177 54.4688 15.6977 54.2141 16.892 53.7194C18.0863 53.2247 19.1715 52.4997 20.0856 51.5856C20.9997 50.6715 21.7247 49.5863 22.2194 48.392C22.7141 47.1977 22.9688 45.9177 22.9688 44.625H19.0312Z" fill="white"/>
    <path opacity="0.5" d="M7.875 28.875H18.375V14.7473C18.3748 14.3 18.2602 13.8602 18.0423 13.4696C17.8244 13.079 17.5102 12.7506 17.1297 12.5155C16.7492 12.2804 16.3149 12.1464 15.8681 12.1263C15.4213 12.1062 14.9767 12.2006 14.5766 12.4005L9.32662 15.0255C8.89066 15.2434 8.52396 15.5783 8.26757 15.9928C8.01119 16.4072 7.87526 16.8849 7.875 17.3723V28.875Z" stroke="white" stroke-width="1.5"/>
</svg>
