<svg width="63" height="63" viewBox="0 0 63 63" fill="none" xmlns="http://www.w3.org/2000/svg">
    <path d="M0.105788 28.4226C-0.526315 37.8528 1.68604 45.7113 6.42681 52.784C11.1676 59.8566 17.4886 63 25.0738 63H56.679C58.2592 63 59.8395 62.2142 61.1037 60.6425C62.3679 59.0708 63 57.1061 63 55.1415V51.9981C63 49.6406 62.6839 46.8901 62.3679 43.3538H36.4517C33.2912 43.3538 30.7628 41.7821 28.5504 39.0316C26.338 36.2811 25.0738 32.7448 25.0738 29.2085C25.0738 22.9217 27.2862 18.5995 32.027 16.242L47.1974 7.99056C41.8246 3.27547 35.5035 0.524998 28.2344 0.132073C21.2812 -0.653776 14.9602 2.0967 9.27128 7.59764C3.58235 13.0986 0.737891 19.7783 0.105788 28.4226ZM31.3949 29.2085C31.3949 30.7802 32.027 32.3519 32.9751 33.5307C33.9233 34.7094 35.1875 35.4953 36.4517 35.4953H61.1037C59.2074 26.8509 56.3629 19.7783 52.2543 14.2774L34.5554 23.3146C32.343 24.1005 31.3949 26.0651 31.3949 29.2085Z" fill="white"/>
</svg>
