<svg width="32" height="25" viewBox="0 0 32 25" fill="none" xmlns="http://www.w3.org/2000/svg">
<g clip-path="url(#clip0_297_215)">
<path d="M23.9258 0H7.32422C3.27916 0 0 2.62333 0 5.85938V19.1406C0 22.3767 3.27916 25 7.32422 25H23.9258C27.9708 25 31.25 22.3767 31.25 19.1406V5.85938C31.25 2.62333 27.9708 0 23.9258 0Z" fill="url(#paint0_radial_297_215)"/>
<path d="M23.9258 0H7.32422C3.27916 0 0 2.62333 0 5.85938V19.1406C0 22.3767 3.27916 25 7.32422 25H23.9258C27.9708 25 31.25 22.3767 31.25 19.1406V5.85938C31.25 2.62333 27.9708 0 23.9258 0Z" fill="url(#paint1_radial_297_215)"/>
<path d="M15.6261 2.73438C12.3109 2.73438 11.8948 2.746 10.5928 2.79336C9.29321 2.84102 8.40613 3.00557 7.63 3.24707C6.82703 3.49648 6.146 3.83018 5.46753 4.37314C4.78845 4.91602 4.37134 5.46084 4.05859 6.10293C3.75586 6.72402 3.54993 7.43398 3.49145 8.47314C3.43323 9.51484 3.41797 9.84785 3.41797 12.5001C3.41797 15.1523 3.43262 15.4842 3.4917 16.5258C3.55151 17.5654 3.7572 18.2751 4.05884 18.896C4.37085 19.5384 4.78796 20.0832 5.46667 20.626C6.14502 21.1692 6.82605 21.5037 7.62842 21.7531C8.40515 21.9946 9.29236 22.1592 10.5917 22.2068C11.8938 22.2542 12.3096 22.2658 15.6246 22.2658C18.9402 22.2658 19.355 22.2542 20.657 22.2068C21.9565 22.1592 22.8446 21.9946 23.6213 21.7531C24.424 21.5037 25.104 21.1692 25.7822 20.626C26.4613 20.0832 26.8783 19.5384 27.1912 18.8963C27.4912 18.2751 27.6973 17.5652 27.7583 16.526C27.8168 15.4844 27.832 15.1523 27.832 12.5001C27.832 9.84785 27.8168 9.51504 27.7583 8.47334C27.6973 7.43369 27.4912 6.72412 27.1912 6.10322C26.8783 5.46084 26.4613 4.91602 25.7822 4.37314C25.1033 3.82998 24.4242 3.49629 23.6206 3.24717C22.8424 3.00557 21.9548 2.84092 20.6553 2.79336C19.3531 2.746 18.9386 2.73438 15.6223 2.73438H15.6261ZM14.531 4.49424C14.8561 4.49385 15.2188 4.49424 15.6261 4.49424C18.8855 4.49424 19.2717 4.50361 20.5588 4.55039C21.749 4.59395 22.395 4.75303 22.8253 4.88672C23.395 5.06367 23.8011 5.27529 24.2281 5.61719C24.6554 5.95898 24.9198 6.28447 25.1416 6.74023C25.3087 7.08398 25.5078 7.60078 25.562 8.55293C25.6205 9.58242 25.6332 9.8916 25.6332 12.4979C25.6332 15.1041 25.6205 15.4134 25.562 16.4428C25.5076 17.3949 25.3087 17.9117 25.1416 18.2556C24.9204 18.7113 24.6554 19.0358 24.2281 19.3774C23.8009 19.7192 23.3953 19.9308 22.8253 20.1078C22.3955 20.2421 21.749 20.4008 20.5588 20.4443C19.272 20.4911 18.8855 20.5013 15.6261 20.5013C12.3666 20.5013 11.9802 20.4911 10.6935 20.4443C9.5033 20.4004 8.8573 20.2413 8.42664 20.1076C7.85706 19.9306 7.45007 19.719 7.02283 19.3772C6.59558 19.0354 6.33118 18.7107 6.10938 18.2548C5.94226 17.9109 5.74316 17.3941 5.68896 16.442C5.63049 15.4125 5.61877 15.1033 5.61877 12.4954C5.61877 9.8876 5.63049 9.57998 5.68896 8.55049C5.74341 7.59834 5.94226 7.08154 6.10938 6.7373C6.33069 6.28154 6.59558 5.95605 7.02295 5.61426C7.4502 5.27246 7.85706 5.06084 8.42676 4.8835C8.85706 4.74922 9.5033 4.59053 10.6935 4.54678C11.8196 4.50605 12.256 4.49385 14.531 4.4918V4.49424ZM22.1422 6.11572C21.3335 6.11572 20.6774 6.64014 20.6774 7.28721C20.6774 7.93418 21.3335 8.45908 22.1422 8.45908C22.9509 8.45908 23.6071 7.93418 23.6071 7.28721C23.6071 6.64023 22.9509 6.11533 22.1422 6.11533V6.11572ZM15.6261 7.48496C12.1642 7.48496 9.3573 9.73047 9.3573 12.5001C9.3573 15.2697 12.1642 17.5142 15.6261 17.5142C19.0881 17.5142 21.894 15.2697 21.894 12.5001C21.894 9.73057 19.0879 7.48496 15.6259 7.48496H15.6261ZM15.6261 9.24482C17.8733 9.24482 19.6952 10.7021 19.6952 12.5001C19.6952 14.2979 17.8733 15.7554 15.6261 15.7554C13.3788 15.7554 11.5571 14.2979 11.5571 12.5001C11.5571 10.7021 13.3788 9.24482 15.6261 9.24482Z" fill="white"/>
</g>
<defs>
<radialGradient id="paint0_radial_297_215" cx="0" cy="0" r="1" gradientUnits="userSpaceOnUse" gradientTransform="translate(8.30078 26.9255) rotate(-90) scale(24.7769 28.8055)">
<stop stop-color="#FFDD55"/>
<stop offset="0.1" stop-color="#FFDD55"/>
<stop offset="0.5" stop-color="#FF543E"/>
<stop offset="1" stop-color="#C837AB"/>
</radialGradient>
<radialGradient id="paint1_radial_297_215" cx="0" cy="0" r="1" gradientUnits="userSpaceOnUse" gradientTransform="translate(-5.2345 1.80088) rotate(75.9527) scale(11.1947 56.458)">
<stop stop-color="#3771C8"/>
<stop offset="0.128" stop-color="#3771C8"/>
<stop offset="1" stop-color="#6600FF" stop-opacity="0"/>
</radialGradient>
<clipPath id="clip0_297_215">
<rect width="31.25" height="25" fill="white"/>
</clipPath>
</defs>
</svg>
