<svg width="63" height="63" viewBox="0 0 63 63" fill="none" xmlns="http://www.w3.org/2000/svg">
<g clip-path="url(#clip0_23_123)">
<path d="M43.3125 3.9375C44.3568 3.9375 45.3583 4.35234 46.0967 5.09077C46.8352 5.82919 47.25 6.83071 47.25 7.875V55.125C47.25 56.1693 46.8352 57.1708 46.0967 57.9092C45.3583 58.6477 44.3568 59.0625 43.3125 59.0625H19.6875C18.6432 59.0625 17.6417 58.6477 16.9033 57.9092C16.1648 57.1708 15.75 56.1693 15.75 55.125V7.875C15.75 6.83071 16.1648 5.82919 16.9033 5.09077C17.6417 4.35234 18.6432 3.9375 19.6875 3.9375H43.3125ZM19.6875 0C17.5989 0 15.5959 0.829685 14.119 2.30653C12.6422 3.78338 11.8125 5.78642 11.8125 7.875V55.125C11.8125 57.2136 12.6422 59.2166 14.119 60.6935C15.5959 62.1703 17.5989 63 19.6875 63H43.3125C45.4011 63 47.4041 62.1703 48.881 60.6935C50.3578 59.2166 51.1875 57.2136 51.1875 55.125V7.875C51.1875 5.78642 50.3578 3.78338 48.881 2.30653C47.4041 0.829685 45.4011 0 43.3125 0L19.6875 0Z" fill="white"/>
<path d="M31.5 55.125C32.5443 55.125 33.5458 54.7102 34.2842 53.9717C35.0227 53.2333 35.4375 52.2318 35.4375 51.1875C35.4375 50.1432 35.0227 49.1417 34.2842 48.4033C33.5458 47.6648 32.5443 47.25 31.5 47.25C30.4557 47.25 29.4542 47.6648 28.7158 48.4033C27.9773 49.1417 27.5625 50.1432 27.5625 51.1875C27.5625 52.2318 27.9773 53.2333 28.7158 53.9717C29.4542 54.7102 30.4557 55.125 31.5 55.125Z" fill="white"/>
</g>
<defs>
<clipPath id="clip0_23_123">
<rect width="63" height="63" fill="white"/>
</clipPath>
</defs>
</svg>
