<svg width="63" height="63" viewBox="0 0 63 63" fill="none" xmlns="http://www.w3.org/2000/svg">
    <path d="M56.2693 31.7732L49.3639 29.4722C49.1544 29.3992 48.9263 29.3992 48.7167 29.4722L38.0781 33.3408C37.8632 33.4218 37.6359 33.4651 37.4062 33.4687C36.9752 33.4685 36.5561 33.3268 36.2134 33.0654C35.8706 32.804 35.6231 32.4374 35.5089 32.0217C35.3846 31.5342 35.4476 31.0179 35.6854 30.5746C35.9233 30.1313 36.3186 29.7933 36.7935 29.6272L41.3438 27.9735C41.466 27.9294 41.5715 27.8484 41.6455 27.7416C41.7196 27.6348 41.7585 27.5075 41.7569 27.3776C41.7553 27.2476 41.7132 27.1214 41.6365 27.0165C41.5598 26.9116 41.4523 26.8332 41.329 26.7922C40.5222 26.5232 39.7833 26.0824 39.1634 25.5002C39.0309 25.3698 38.8642 25.2796 38.6826 25.2399C38.501 25.2003 38.3119 25.2129 38.1371 25.2763L32.1768 27.4419C31.9215 27.5345 31.6498 27.5734 31.3788 27.5559C31.1078 27.5385 30.8433 27.4652 30.602 27.3406C30.3607 27.216 30.1478 27.0429 29.9767 26.832C29.8055 26.6212 29.6798 26.3772 29.6075 26.1155C29.4833 25.628 29.5463 25.1116 29.7841 24.6684C30.0219 24.2251 30.4173 23.887 30.8921 23.721L35.9297 21.8851C36.0557 21.8394 36.1711 21.7684 36.2687 21.6765C36.3663 21.5845 36.4441 21.4737 36.4973 21.3506C36.5505 21.2276 36.5781 21.095 36.5782 20.9609C36.5784 20.8268 36.5511 20.6941 36.4982 20.571L35.7451 18.8089C35.6463 18.5771 35.4624 18.392 35.2312 18.2917C35 18.1914 34.7391 18.1837 34.5023 18.27L28.227 20.5513C27.9717 20.6439 27.7 20.6827 27.429 20.6653C27.158 20.6479 26.8935 20.5745 26.6522 20.45C26.4109 20.3254 26.198 20.1522 26.0269 19.9414C25.8557 19.7306 25.73 19.4866 25.6577 19.2248C25.5335 18.7374 25.5965 18.221 25.8343 17.7777C26.0721 17.3344 26.4675 16.9964 26.9423 16.8303L32.8486 14.6819C32.9743 14.6362 33.0894 14.5653 33.1868 14.4735C33.2842 14.3818 33.3618 14.2712 33.415 14.1484C33.4682 14.0257 33.4959 13.8933 33.4962 13.7595C33.4966 13.6258 33.4696 13.4933 33.4171 13.3703L32.0882 10.2375V10.2129C31.6814 9.30059 30.9432 8.57698 30.0229 8.18859C29.1027 7.8002 28.0692 7.77607 27.1318 8.12109L8.49762 14.8862C7.73899 15.1641 7.08381 15.6679 6.62044 16.3297C6.15708 16.9915 5.90781 17.7795 5.90625 18.5875V47.25C5.90625 48.2943 6.32109 49.2958 7.05952 50.0342C7.79794 50.7726 8.79946 51.1875 9.84375 51.1875H59.0625C60.1068 51.1875 61.1083 50.7726 61.8467 50.0342C62.5852 49.2958 63 48.2943 63 47.25V41.1124C63.0002 39.0463 62.3502 37.0325 61.1422 35.3563C59.9342 33.6802 58.2294 32.4266 56.2693 31.7732ZM59.0625 47.25H9.84375V43.3125H59.0625V47.25Z" fill="white"/>
</svg>
