<svg width="40" height="40" viewBox="0 0 40 40" fill="none" xmlns="http://www.w3.org/2000/svg">
    <g clip-path="url(#clip0_43_120)">
        <path d="M29.5285 29.9396C29.9583 26.8078 27.6971 24.811 21.7262 23.111C18.8332 22.2309 17.4709 21.0775 17.5026 19.4925C17.6241 17.7324 19.4612 16.4507 21.8981 16.409C23.8173 16.4275 25.6891 16.9428 27.2859 17.8924C27.5027 18.0124 27.6541 17.9924 27.7774 17.8257C27.9456 17.5857 28.3661 17.004 28.5063 16.7924C28.6016 16.659 28.6203 16.4824 28.3792 16.3257C28.0335 16.0973 27.0635 15.634 26.5421 15.439C25.0572 14.8785 23.462 14.5872 21.8495 14.5823C18.2801 14.5956 15.4712 16.6074 15.2339 19.2925C15.0819 21.2326 16.1596 22.8032 18.467 24.0043C18.9585 24.2577 21.6066 25.1977 22.6606 25.4911C25.9759 26.4111 27.6971 28.0612 27.2915 29.9862C26.9234 31.7313 24.8639 32.8597 22.0252 32.893C19.777 32.8164 17.7512 31.998 16.1814 30.9096L15.9179 30.7263C15.7235 30.5929 15.5105 30.6013 15.3815 30.7763C15.2881 30.9046 14.6788 31.688 14.5256 31.893C14.3817 32.073 14.4602 32.173 14.6097 32.283C15.2638 32.7714 16.1365 33.3047 16.7289 33.5747C18.3699 34.3205 20.1751 34.7342 22.0158 34.7865C23.3411 34.8426 24.6642 34.6413 25.8937 34.1964C27.94 33.4214 29.2631 31.873 29.5285 29.9396ZM22.1635 2.3351C18.2988 2.3351 15.1479 5.58523 15.0003 9.65207H29.3248C29.1734 5.58357 26.0245 2.33343 22.1635 2.33343M36.8356 39.9983L36.6861 40L7.1886 39.9967C5.18149 39.93 3.70698 38.4799 3.50515 36.6782L3.48646 36.3532L2.1652 10.4754C2.15654 10.3715 2.17175 10.267 2.20988 10.1685C2.24801 10.07 2.30828 9.97939 2.38699 9.90232C2.4657 9.82526 2.5612 9.76332 2.66767 9.72029C2.77413 9.67726 2.88931 9.65405 3.00618 9.65207H12.3036C12.5297 4.28018 16.856 0 22.1635 0C27.4709 0 31.7935 4.28185 32.0215 9.6504H41.3058C41.4221 9.65072 41.5371 9.67208 41.6439 9.71319C41.7507 9.75429 41.847 9.81429 41.927 9.88955C42.007 9.96481 42.0691 10.0538 42.1094 10.151C42.1498 10.2483 42.1676 10.3519 42.1618 10.4554L40.7172 36.4365L40.7041 36.6549C40.5284 38.4783 38.8745 39.95 36.8356 39.9983Z" fill="black"/>
    </g>
    <defs>
        <clipPath id="clip0_43_120">
            <rect width="40" height="40" fill="white"/>
        </clipPath>
    </defs>
</svg>
