<svg width="214" height="46" viewBox="0 0 214 46" fill="none" xmlns="http://www.w3.org/2000/svg">
    <path d="M0.792614 45V1.36364H18.2642C21.4744 1.36364 24.152 1.83949 26.2969 2.79119C28.4418 3.7429 30.054 5.06392 31.1335 6.75426C32.2131 8.4304 32.7528 10.3622 32.7528 12.5497C32.7528 14.2543 32.4119 15.7528 31.7301 17.0455C31.0483 18.3239 30.1108 19.375 28.9176 20.1989C27.7386 21.0085 26.3892 21.5838 24.8693 21.9247V22.3509C26.5313 22.4219 28.0866 22.8906 29.5355 23.7571C30.9986 24.6236 32.1847 25.8381 33.0938 27.4006C34.0028 28.9489 34.4574 30.7955 34.4574 32.9403C34.4574 35.2557 33.8821 37.3224 32.7315 39.1406C31.5952 40.9446 29.9119 42.3722 27.6818 43.4233C25.4517 44.4744 22.7031 45 19.4361 45H0.792614ZM10.0185 37.4574H17.5398C20.1108 37.4574 21.9858 36.9673 23.1648 35.9872C24.3438 34.9929 24.9332 33.6719 24.9332 32.0241C24.9332 30.8168 24.642 29.7514 24.0597 28.8281C23.4773 27.9048 22.6463 27.1804 21.5668 26.6548C20.5014 26.1293 19.2301 25.8665 17.7528 25.8665H10.0185V37.4574ZM10.0185 19.6236H16.858C18.1222 19.6236 19.2443 19.4034 20.2244 18.9631C21.2188 18.5085 22 17.8693 22.5682 17.0455C23.1506 16.2216 23.4418 15.2344 23.4418 14.0838C23.4418 12.5071 22.8807 11.2358 21.7585 10.2699C20.6506 9.30398 19.0739 8.82102 17.0284 8.82102H10.0185V19.6236ZM93.5819 45H83.6955L98.7594 1.36364H110.649L125.691 45H115.805L104.875 11.3352H104.534L93.5819 45ZM92.964 27.848H116.316V35.0497H92.964V27.848ZM203.427 15.4688C203.129 14.4318 202.71 13.5156 202.17 12.7202C201.63 11.9105 200.97 11.2287 200.189 10.6747C199.422 10.1065 198.541 9.6733 197.547 9.375C196.566 9.0767 195.48 8.92756 194.287 8.92756C192.057 8.92756 190.096 9.48153 188.406 10.5895C186.73 11.6974 185.423 13.3097 184.486 15.4261C183.548 17.5284 183.079 20.0994 183.079 23.1392C183.079 26.179 183.541 28.7642 184.464 30.8949C185.387 33.0256 186.694 34.652 188.385 35.7741C190.075 36.8821 192.071 37.4361 194.372 37.4361C196.46 37.4361 198.243 37.0668 199.72 36.3281C201.211 35.5753 202.348 34.517 203.129 33.1534C203.924 31.7898 204.322 30.1776 204.322 28.3168L206.197 28.5938H194.947V21.6477H213.207V27.1449C213.207 30.9801 212.397 34.2756 210.778 37.0312C209.159 39.7727 206.929 41.8892 204.088 43.3807C201.247 44.858 197.994 45.5966 194.329 45.5966C190.238 45.5966 186.645 44.6946 183.548 42.8906C180.451 41.0724 178.037 38.4943 176.304 35.1562C174.585 31.804 173.726 27.8267 173.726 23.2244C173.726 19.6875 174.237 16.5341 175.26 13.7642C176.297 10.9801 177.745 8.62216 179.606 6.69034C181.467 4.75852 183.633 3.28835 186.105 2.27983C188.576 1.27131 191.254 0.767044 194.137 0.767044C196.609 0.767044 198.91 1.12926 201.041 1.85369C203.172 2.56392 205.061 3.57244 206.709 4.87926C208.37 6.18608 209.727 7.74148 210.778 9.54545C211.829 11.3352 212.504 13.3097 212.802 15.4688H203.427Z" fill="#939393" fill-opacity="0.16"/>
</svg>
