<svg width="734" height="90" viewBox="0 0 734 90" fill="none" xmlns="http://www.w3.org/2000/svg">
    <path d="M42.294 38.6406H32.9616C32.7912 37.4332 32.4432 36.3608 31.9176 35.4233C31.392 34.4716 30.7173 33.6619 29.8935 32.9943C29.0696 32.3267 28.1179 31.8153 27.0384 31.4602C25.973 31.1051 24.8153 30.9276 23.5653 30.9276C21.3068 30.9276 19.3395 31.4886 17.6634 32.6108C15.9872 33.7187 14.6875 35.3381 13.7642 37.4688C12.8409 39.5852 12.3793 42.1562 12.3793 45.1818C12.3793 48.2926 12.8409 50.9062 13.7642 53.0227C14.7017 55.1392 16.0085 56.7372 17.6847 57.8168C19.3608 58.8963 21.2997 59.4361 23.5014 59.4361C24.7372 59.4361 25.8807 59.2727 26.9318 58.946C27.9972 58.6193 28.9418 58.1435 29.7656 57.5185C30.5895 56.8793 31.2713 56.1051 31.8111 55.196C32.3651 54.2869 32.7486 53.25 32.9616 52.0852L42.294 52.1278C42.0526 54.1307 41.4489 56.0625 40.483 57.9233C39.5313 59.7699 38.2457 61.4247 36.6264 62.8878C35.0213 64.3366 33.1037 65.4872 30.8736 66.3395C28.6577 67.1776 26.1506 67.5966 23.3523 67.5966C19.4602 67.5966 15.9801 66.7159 12.9119 64.9545C9.85795 63.1932 7.44318 60.6435 5.66761 57.3054C3.90625 53.9673 3.02557 49.9261 3.02557 45.1818C3.02557 40.4233 3.92045 36.375 5.71023 33.0369C7.5 29.6989 9.92898 27.1562 12.9972 25.4091C16.0653 23.6477 19.517 22.767 23.3523 22.767C25.8807 22.767 28.2244 23.1222 30.3835 23.8324C32.5568 24.5426 34.4815 25.5795 36.1577 26.9432C37.8338 28.2926 39.1974 29.9474 40.2486 31.9077C41.3139 33.8679 41.9957 36.1122 42.294 38.6406ZM101.211 67H91.3244L106.388 23.3636H118.278L133.32 67H123.434L112.503 33.3352H112.162L101.211 67ZM100.593 49.848H123.945V57.0497H100.593V49.848ZM177.178 30.9702V23.3636H213.016V30.9702H199.657V67H190.538V30.9702H177.178ZM266.708 67H256.821L271.885 23.3636H283.774L298.817 67H288.931L278 33.3352H277.659L266.708 67ZM266.09 49.848H289.442V57.0497H266.09V49.848ZM349.669 67V23.3636H358.895V59.3935H377.602V67H349.669ZM467.712 45.1818C467.712 49.9403 466.81 53.9886 465.006 57.3267C463.217 60.6648 460.773 63.2145 457.677 64.9759C454.594 66.723 451.129 67.5966 447.279 67.5966C443.401 67.5966 439.921 66.7159 436.839 64.9545C433.756 63.1932 431.32 60.6435 429.531 57.3054C427.741 53.9673 426.846 49.9261 426.846 45.1818C426.846 40.4233 427.741 36.375 429.531 33.0369C431.32 29.6989 433.756 27.1562 436.839 25.4091C439.921 23.6477 443.401 22.767 447.279 22.767C451.129 22.767 454.594 23.6477 457.677 25.4091C460.773 27.1562 463.217 29.6989 465.006 33.0369C466.81 36.375 467.712 40.4233 467.712 45.1818ZM458.359 45.1818C458.359 42.0994 457.897 39.5 456.974 37.3835C456.065 35.267 454.779 33.6619 453.117 32.5682C451.455 31.4744 449.509 30.9276 447.279 30.9276C445.049 30.9276 443.103 31.4744 441.441 32.5682C439.779 33.6619 438.487 35.267 437.563 37.3835C436.654 39.5 436.2 42.0994 436.2 45.1818C436.2 48.2642 436.654 50.8636 437.563 52.9801C438.487 55.0966 439.779 56.7017 441.441 57.7955C443.103 58.8892 445.049 59.4361 447.279 59.4361C449.509 59.4361 451.455 58.8892 453.117 57.7955C454.779 56.7017 456.065 55.0966 456.974 52.9801C457.897 50.8636 458.359 48.2642 458.359 45.1818ZM549.081 37.4688C548.783 36.4318 548.364 35.5156 547.824 34.7202C547.284 33.9105 546.624 33.2287 545.843 32.6747C545.075 32.1065 544.195 31.6733 543.2 31.375C542.22 31.0767 541.134 30.9276 539.941 30.9276C537.71 30.9276 535.75 31.4815 534.06 32.5895C532.384 33.6974 531.077 35.3097 530.139 37.4261C529.202 39.5284 528.733 42.0994 528.733 45.1392C528.733 48.179 529.195 50.7642 530.118 52.8949C531.041 55.0256 532.348 56.652 534.039 57.7741C535.729 58.8821 537.725 59.4361 540.026 59.4361C542.114 59.4361 543.896 59.0668 545.374 58.3281C546.865 57.5753 548.002 56.517 548.783 55.1534C549.578 53.7898 549.976 52.1776 549.976 50.3168L551.851 50.5938H540.601V43.6477H558.861V49.1449C558.861 52.9801 558.051 56.2756 556.432 59.0312C554.813 61.7727 552.583 63.8892 549.742 65.3807C546.901 66.858 543.648 67.5966 539.983 67.5966C535.892 67.5966 532.298 66.6946 529.202 64.8906C526.105 63.0724 523.691 60.4943 521.958 57.1562C520.239 53.804 519.379 49.8267 519.379 45.2244C519.379 41.6875 519.891 38.5341 520.914 35.7642C521.95 32.9801 523.399 30.6222 525.26 28.6903C527.121 26.7585 529.287 25.2884 531.759 24.2798C534.23 23.2713 536.908 22.767 539.791 22.767C542.263 22.767 544.564 23.1293 546.695 23.8537C548.825 24.5639 550.715 25.5724 552.362 26.8793C554.024 28.1861 555.381 29.7415 556.432 31.5455C557.483 33.3352 558.158 35.3097 558.456 37.4688H549.081ZM638.344 23.3636H647.57V51.7017C647.57 54.8835 646.81 57.6676 645.29 60.054C643.785 62.4403 641.675 64.3011 638.962 65.6364C636.249 66.9574 633.089 67.6179 629.481 67.6179C625.858 67.6179 622.691 66.9574 619.978 65.6364C617.265 64.3011 615.155 62.4403 613.65 60.054C612.144 57.6676 611.391 54.8835 611.391 51.7017V23.3636H620.617V50.9134C620.617 52.5753 620.979 54.0526 621.704 55.3452C622.442 56.6378 623.479 57.6534 624.814 58.392C626.15 59.1307 627.705 59.5 629.481 59.5C631.27 59.5 632.826 59.1307 634.147 58.392C635.482 57.6534 636.512 56.6378 637.236 55.3452C637.975 54.0526 638.344 52.5753 638.344 50.9134V23.3636ZM700.761 67V23.3636H730.164V30.9702H709.986V41.3679H728.651V48.9744H709.986V59.3935H730.249V67H700.761Z" fill="#939393" fill-opacity="0.16"/>
    <path d="M290.557 40.875H285.58C285.489 40.2311 285.303 39.6591 285.023 39.1591C284.742 38.6515 284.383 38.2197 283.943 37.8636C283.504 37.5076 282.996 37.2348 282.42 37.0455C281.852 36.8561 281.235 36.7614 280.568 36.7614C279.364 36.7614 278.314 37.0606 277.42 37.6591C276.527 38.25 275.833 39.1136 275.341 40.25C274.848 41.3788 274.602 42.75 274.602 44.3636C274.602 46.0227 274.848 47.4167 275.341 48.5455C275.841 49.6742 276.538 50.5265 277.432 51.1023C278.326 51.678 279.36 51.9659 280.534 51.9659C281.193 51.9659 281.803 51.8788 282.364 51.7045C282.932 51.5303 283.436 51.2765 283.875 50.9432C284.314 50.6023 284.678 50.1894 284.966 49.7045C285.261 49.2197 285.466 48.6667 285.58 48.0455L290.557 48.0682C290.428 49.1364 290.106 50.1667 289.591 51.1591C289.083 52.1439 288.398 53.0265 287.534 53.8068C286.678 54.5795 285.655 55.1932 284.466 55.6477C283.284 56.0947 281.947 56.3182 280.455 56.3182C278.379 56.3182 276.523 55.8485 274.886 54.9091C273.258 53.9697 271.97 52.6098 271.023 50.8295C270.083 49.0492 269.614 46.8939 269.614 44.3636C269.614 41.8258 270.091 39.6667 271.045 37.8864C272 36.1061 273.295 34.75 274.932 33.8182C276.568 32.8788 278.409 32.4091 280.455 32.4091C281.803 32.4091 283.053 32.5985 284.205 32.9773C285.364 33.3561 286.39 33.9091 287.284 34.6364C288.178 35.3561 288.905 36.2386 289.466 37.2841C290.034 38.3295 290.398 39.5265 290.557 40.875ZM297.659 56H292.386L300.42 32.7273H306.761L314.784 56H309.511L303.682 38.0455H303.5L297.659 56ZM297.33 46.8523H309.784V50.6932H297.33V46.8523ZM313.855 36.7841V32.7273H332.969V36.7841H325.844V56H320.98V36.7841H313.855ZM337.284 56H332.011L340.045 32.7273H346.386L354.409 56H349.136L343.307 38.0455H343.125L337.284 56ZM336.955 46.8523H349.409V50.6932H336.955V46.8523ZM357.21 56V32.7273H362.131V51.9432H372.108V56H357.21ZM395.847 44.3636C395.847 46.9015 395.366 49.0606 394.403 50.8409C393.449 52.6212 392.146 53.9811 390.494 54.9205C388.85 55.8523 387.002 56.3182 384.949 56.3182C382.881 56.3182 381.025 55.8485 379.381 54.9091C377.737 53.9697 376.438 52.6098 375.483 50.8295C374.528 49.0492 374.051 46.8939 374.051 44.3636C374.051 41.8258 374.528 39.6667 375.483 37.8864C376.438 36.1061 377.737 34.75 379.381 33.8182C381.025 32.8788 382.881 32.4091 384.949 32.4091C387.002 32.4091 388.85 32.8788 390.494 33.8182C392.146 34.75 393.449 36.1061 394.403 37.8864C395.366 39.6667 395.847 41.8258 395.847 44.3636ZM390.858 44.3636C390.858 42.7197 390.612 41.3333 390.119 40.2045C389.634 39.0758 388.949 38.2197 388.062 37.6364C387.176 37.053 386.138 36.7614 384.949 36.7614C383.759 36.7614 382.722 37.053 381.835 37.6364C380.949 38.2197 380.259 39.0758 379.767 40.2045C379.282 41.3333 379.04 42.7197 379.04 44.3636C379.04 46.0076 379.282 47.3939 379.767 48.5227C380.259 49.6515 380.949 50.5076 381.835 51.0909C382.722 51.6742 383.759 51.9659 384.949 51.9659C386.138 51.9659 387.176 51.6742 388.062 51.0909C388.949 50.5076 389.634 49.6515 390.119 48.5227C390.612 47.3939 390.858 46.0076 390.858 44.3636ZM414.923 40.25C414.764 39.697 414.541 39.2083 414.253 38.7841C413.965 38.3523 413.613 37.9886 413.196 37.6932C412.787 37.3902 412.317 37.1591 411.787 37C411.264 36.8409 410.685 36.7614 410.048 36.7614C408.859 36.7614 407.813 37.0568 406.912 37.6477C406.018 38.2386 405.321 39.0985 404.821 40.2273C404.321 41.3485 404.071 42.7197 404.071 44.3409C404.071 45.9621 404.317 47.3409 404.81 48.4773C405.302 49.6136 405.999 50.4811 406.901 51.0795C407.802 51.6705 408.866 51.9659 410.094 51.9659C411.207 51.9659 412.158 51.7689 412.946 51.375C413.741 50.9735 414.348 50.4091 414.764 49.6818C415.188 48.9545 415.401 48.0947 415.401 47.1023L416.401 47.25H410.401V43.5455H420.139V46.4773C420.139 48.5227 419.707 50.2803 418.844 51.75C417.98 53.2121 416.791 54.3409 415.276 55.1364C413.76 55.9242 412.026 56.3182 410.071 56.3182C407.889 56.3182 405.973 55.8371 404.321 54.875C402.67 53.9053 401.382 52.5303 400.457 50.75C399.541 48.9621 399.082 46.8409 399.082 44.3864C399.082 42.5 399.355 40.8182 399.901 39.3409C400.454 37.8561 401.226 36.5985 402.219 35.5682C403.211 34.5379 404.366 33.7538 405.685 33.2159C407.003 32.678 408.431 32.4091 409.969 32.4091C411.287 32.4091 412.514 32.6023 413.651 32.9886C414.787 33.3674 415.795 33.9053 416.673 34.6023C417.56 35.2992 418.283 36.1288 418.844 37.0909C419.404 38.0455 419.764 39.0985 419.923 40.25H414.923ZM438.21 32.7273H443.131V47.8409C443.131 49.5379 442.725 51.0227 441.915 52.2955C441.112 53.5682 439.987 54.5606 438.54 55.2727C437.093 55.9773 435.407 56.3295 433.483 56.3295C431.551 56.3295 429.862 55.9773 428.415 55.2727C426.968 54.5606 425.843 53.5682 425.04 52.2955C424.237 51.0227 423.835 49.5379 423.835 47.8409V32.7273H428.756V47.4205C428.756 48.3068 428.949 49.0947 429.335 49.7841C429.729 50.4735 430.282 51.0152 430.994 51.4091C431.706 51.803 432.536 52 433.483 52C434.438 52 435.267 51.803 435.972 51.4091C436.684 51.0152 437.233 50.4735 437.619 49.7841C438.013 49.0947 438.21 48.3068 438.21 47.4205V32.7273ZM447.179 56V32.7273H462.861V36.7841H452.099V42.3295H462.054V46.3864H452.099V51.9432H462.906V56H447.179Z" fill="black"/>
</svg>
