<svg width="654" height="90" viewBox="0 0 654 90" fill="none" xmlns="http://www.w3.org/2000/svg">
    <path d="M42.294 38.6406H32.9616C32.7912 37.4332 32.4432 36.3608 31.9176 35.4233C31.392 34.4716 30.7173 33.6619 29.8935 32.9943C29.0696 32.3267 28.1179 31.8153 27.0384 31.4602C25.973 31.1051 24.8153 30.9276 23.5653 30.9276C21.3068 30.9276 19.3395 31.4886 17.6634 32.6108C15.9872 33.7187 14.6875 35.3381 13.7642 37.4688C12.8409 39.5852 12.3793 42.1562 12.3793 45.1818C12.3793 48.2926 12.8409 50.9062 13.7642 53.0227C14.7017 55.1392 16.0085 56.7372 17.6847 57.8168C19.3608 58.8963 21.2997 59.4361 23.5014 59.4361C24.7372 59.4361 25.8807 59.2727 26.9318 58.946C27.9972 58.6193 28.9418 58.1435 29.7656 57.5185C30.5895 56.8793 31.2713 56.1051 31.8111 55.196C32.3651 54.2869 32.7486 53.25 32.9616 52.0852L42.294 52.1278C42.0526 54.1307 41.4489 56.0625 40.483 57.9233C39.5313 59.7699 38.2457 61.4247 36.6264 62.8878C35.0213 64.3366 33.1037 65.4872 30.8736 66.3395C28.6577 67.1776 26.1506 67.5966 23.3523 67.5966C19.4602 67.5966 15.9801 66.7159 12.9119 64.9545C9.85795 63.1932 7.44318 60.6435 5.66761 57.3054C3.90625 53.9673 3.02557 49.9261 3.02557 45.1818C3.02557 40.4233 3.92045 36.375 5.71023 33.0369C7.5 29.6989 9.92898 27.1562 12.9972 25.4091C16.0653 23.6477 19.517 22.767 23.3523 22.767C25.8807 22.767 28.2244 23.1222 30.3835 23.8324C32.5568 24.5426 34.4815 25.5795 36.1577 26.9432C37.8338 28.2926 39.1974 29.9474 40.2486 31.9077C41.3139 33.8679 41.9957 36.1122 42.294 38.6406ZM101.211 67H91.3244L106.388 23.3636H118.278L133.32 67H123.434L112.503 33.3352H112.162L101.211 67ZM100.593 49.848H123.945V57.0497H100.593V49.848ZM177.178 30.9702V23.3636H213.016V30.9702H199.657V67H190.538V30.9702H177.178ZM264.518 67V23.3636H293.922V30.9702H273.744V41.3679H292.409V48.9744H273.744V59.3935H294.007V67H264.518ZM375.791 37.4688C375.493 36.4318 375.074 35.5156 374.534 34.7202C373.994 33.9105 373.334 33.2287 372.553 32.6747C371.786 32.1065 370.905 31.6733 369.911 31.375C368.931 31.0767 367.844 30.9276 366.651 30.9276C364.421 30.9276 362.46 31.4815 360.77 32.5895C359.094 33.6974 357.787 35.3097 356.85 37.4261C355.912 39.5284 355.443 42.0994 355.443 45.1392C355.443 48.179 355.905 50.7642 356.828 52.8949C357.752 55.0256 359.058 56.652 360.749 57.7741C362.439 58.8821 364.435 59.4361 366.736 59.4361C368.824 59.4361 370.607 59.0668 372.084 58.3281C373.575 57.5753 374.712 56.517 375.493 55.1534C376.288 53.7898 376.686 52.1776 376.686 50.3168L378.561 50.5938H367.311V43.6477H385.571V49.1449C385.571 52.9801 384.762 56.2756 383.142 59.0312C381.523 61.7727 379.293 63.8892 376.452 65.3807C373.611 66.858 370.358 67.5966 366.693 67.5966C362.602 67.5966 359.009 66.6946 355.912 64.8906C352.815 63.0724 350.401 60.4943 348.668 57.1562C346.949 53.804 346.09 49.8267 346.09 45.2244C346.09 41.6875 346.601 38.5341 347.624 35.7642C348.661 32.9801 350.11 30.6222 351.97 28.6903C353.831 26.7585 355.997 25.2884 358.469 24.2798C360.94 23.2713 363.618 22.767 366.502 22.767C368.973 22.767 371.274 23.1293 373.405 23.8537C375.536 24.5639 377.425 25.5724 379.073 26.8793C380.735 28.1861 382.091 29.7415 383.142 31.5455C384.193 33.3352 384.868 35.3097 385.166 37.4688H375.791ZM478.201 45.1818C478.201 49.9403 477.299 53.9886 475.495 57.3267C473.705 60.6648 471.262 63.2145 468.165 64.9759C465.083 66.723 461.617 67.5966 457.767 67.5966C453.89 67.5966 450.409 66.7159 447.327 64.9545C444.245 63.1932 441.809 60.6435 440.019 57.3054C438.229 53.9673 437.334 49.9261 437.334 45.1818C437.334 40.4233 438.229 36.375 440.019 33.0369C441.809 29.6989 444.245 27.1562 447.327 25.4091C450.409 23.6477 453.89 22.767 457.767 22.767C461.617 22.767 465.083 23.6477 468.165 25.4091C471.262 27.1562 473.705 29.6989 475.495 33.0369C477.299 36.375 478.201 40.4233 478.201 45.1818ZM468.847 45.1818C468.847 42.0994 468.385 39.5 467.462 37.3835C466.553 35.267 465.267 33.6619 463.605 32.5682C461.944 31.4744 459.998 30.9276 457.767 30.9276C455.537 30.9276 453.591 31.4744 451.929 32.5682C450.267 33.6619 448.975 35.267 448.051 37.3835C447.142 39.5 446.688 42.0994 446.688 45.1818C446.688 48.2642 447.142 50.8636 448.051 52.9801C448.975 55.0966 450.267 56.7017 451.929 57.7955C453.591 58.8892 455.537 59.4361 457.767 59.4361C459.998 59.4361 461.944 58.8892 463.605 57.7955C465.267 56.7017 466.553 55.0966 467.462 52.9801C468.385 50.8636 468.847 48.2642 468.847 45.1818ZM530.635 67V23.3636H547.851C551.146 23.3636 553.959 23.9531 556.288 25.1321C558.632 26.2969 560.415 27.9517 561.636 30.0966C562.872 32.2273 563.49 34.7344 563.49 37.6179C563.49 40.5156 562.865 43.0085 561.615 45.0966C560.365 47.1705 558.554 48.7614 556.182 49.8693C553.824 50.9773 550.969 51.5312 547.616 51.5312H536.089V44.1165H546.125C547.886 44.1165 549.349 43.875 550.514 43.392C551.679 42.9091 552.545 42.1847 553.113 41.2188C553.696 40.2528 553.987 39.0526 553.987 37.6179C553.987 36.169 553.696 34.9474 553.113 33.9531C552.545 32.9588 551.672 32.206 550.493 31.6946C549.328 31.169 547.858 30.9062 546.082 30.9062H539.861V67H530.635ZM554.2 47.142L565.045 67H554.861L544.25 47.142H554.2ZM611.237 23.3636H621.57L631.521 42.1562H631.947L641.897 23.3636H652.231L636.315 51.5739V67H627.153V51.5739L611.237 23.3636Z" fill="#939393" fill-opacity="0.16"/>
    <path d="M262.557 41.875H257.58C257.489 41.2311 257.303 40.6591 257.023 40.1591C256.742 39.6515 256.383 39.2197 255.943 38.8636C255.504 38.5076 254.996 38.2348 254.42 38.0455C253.852 37.8561 253.235 37.7614 252.568 37.7614C251.364 37.7614 250.314 38.0606 249.42 38.6591C248.527 39.25 247.833 40.1136 247.341 41.25C246.848 42.3788 246.602 43.75 246.602 45.3636C246.602 47.0227 246.848 48.4167 247.341 49.5455C247.841 50.6742 248.538 51.5265 249.432 52.1023C250.326 52.678 251.36 52.9659 252.534 52.9659C253.193 52.9659 253.803 52.8788 254.364 52.7045C254.932 52.5303 255.436 52.2765 255.875 51.9432C256.314 51.6023 256.678 51.1894 256.966 50.7045C257.261 50.2197 257.466 49.6667 257.58 49.0455L262.557 49.0682C262.428 50.1364 262.106 51.1667 261.591 52.1591C261.083 53.1439 260.398 54.0265 259.534 54.8068C258.678 55.5795 257.655 56.1932 256.466 56.6477C255.284 57.0947 253.947 57.3182 252.455 57.3182C250.379 57.3182 248.523 56.8485 246.886 55.9091C245.258 54.9697 243.97 53.6098 243.023 51.8295C242.083 50.0492 241.614 47.8939 241.614 45.3636C241.614 42.8258 242.091 40.6667 243.045 38.8864C244 37.1061 245.295 35.75 246.932 34.8182C248.568 33.8788 250.409 33.4091 252.455 33.4091C253.803 33.4091 255.053 33.5985 256.205 33.9773C257.364 34.3561 258.39 34.9091 259.284 35.6364C260.178 36.3561 260.905 37.2386 261.466 38.2841C262.034 39.3295 262.398 40.5265 262.557 41.875ZM269.659 57H264.386L272.42 33.7273H278.761L286.784 57H281.511L275.682 39.0455H275.5L269.659 57ZM269.33 47.8523H281.784V51.6932H269.33V47.8523ZM285.855 37.7841V33.7273H304.969V37.7841H297.844V57H292.98V37.7841H285.855ZM308.116 57V33.7273H323.798V37.7841H313.037V43.3295H322.991V47.3864H313.037V52.9432H323.844V57H308.116ZM343.142 41.25C342.983 40.697 342.759 40.2083 342.472 39.7841C342.184 39.3523 341.831 38.9886 341.415 38.6932C341.006 38.3902 340.536 38.1591 340.006 38C339.483 37.8409 338.903 37.7614 338.267 37.7614C337.078 37.7614 336.032 38.0568 335.131 38.6477C334.237 39.2386 333.54 40.0985 333.04 41.2273C332.54 42.3485 332.29 43.7197 332.29 45.3409C332.29 46.9621 332.536 48.3409 333.028 49.4773C333.521 50.6136 334.218 51.4811 335.119 52.0795C336.021 52.6705 337.085 52.9659 338.312 52.9659C339.426 52.9659 340.377 52.7689 341.165 52.375C341.96 51.9735 342.566 51.4091 342.983 50.6818C343.407 49.9545 343.619 49.0947 343.619 48.1023L344.619 48.25H338.619V44.5455H348.358V47.4773C348.358 49.5227 347.926 51.2803 347.062 52.75C346.199 54.2121 345.009 55.3409 343.494 56.1364C341.979 56.9242 340.244 57.3182 338.29 57.3182C336.108 57.3182 334.191 56.8371 332.54 55.875C330.888 54.9053 329.6 53.5303 328.676 51.75C327.759 49.9621 327.301 47.8409 327.301 45.3864C327.301 43.5 327.574 41.8182 328.119 40.3409C328.672 38.8561 329.445 37.5985 330.438 36.5682C331.43 35.5379 332.585 34.7538 333.903 34.2159C335.222 33.678 336.65 33.4091 338.188 33.4091C339.506 33.4091 340.733 33.6023 341.869 33.9886C343.006 34.3674 344.013 34.9053 344.892 35.6023C345.778 36.2992 346.502 37.1288 347.062 38.0909C347.623 39.0455 347.983 40.0985 348.142 41.25H343.142ZM373.44 45.3636C373.44 47.9015 372.959 50.0606 371.997 51.8409C371.043 53.6212 369.74 54.9811 368.088 55.9205C366.444 56.8523 364.596 57.3182 362.543 57.3182C360.474 57.3182 358.618 56.8485 356.974 55.9091C355.33 54.9697 354.031 53.6098 353.077 51.8295C352.122 50.0492 351.645 47.8939 351.645 45.3636C351.645 42.8258 352.122 40.6667 353.077 38.8864C354.031 37.1061 355.33 35.75 356.974 34.8182C358.618 33.8788 360.474 33.4091 362.543 33.4091C364.596 33.4091 366.444 33.8788 368.088 34.8182C369.74 35.75 371.043 37.1061 371.997 38.8864C372.959 40.6667 373.44 42.8258 373.44 45.3636ZM368.452 45.3636C368.452 43.7197 368.205 42.3333 367.713 41.2045C367.228 40.0758 366.543 39.2197 365.656 38.6364C364.77 38.053 363.732 37.7614 362.543 37.7614C361.353 37.7614 360.315 38.053 359.429 38.6364C358.543 39.2197 357.853 40.0758 357.361 41.2045C356.876 42.3333 356.634 43.7197 356.634 45.3636C356.634 47.0076 356.876 48.3939 357.361 49.5227C357.853 50.6515 358.543 51.5076 359.429 52.0909C360.315 52.6742 361.353 52.9659 362.543 52.9659C363.732 52.9659 364.77 52.6742 365.656 52.0909C366.543 51.5076 367.228 50.6515 367.713 49.5227C368.205 48.3939 368.452 47.0076 368.452 45.3636ZM377.085 57V33.7273H386.267C388.025 33.7273 389.525 34.0417 390.767 34.6705C392.017 35.2917 392.968 36.1742 393.619 37.3182C394.278 38.4545 394.608 39.7917 394.608 41.3295C394.608 42.875 394.275 44.2045 393.608 45.3182C392.941 46.4242 391.975 47.2727 390.71 47.8636C389.453 48.4545 387.93 48.75 386.142 48.75H379.994V44.7955H385.347C386.286 44.7955 387.066 44.6667 387.688 44.4091C388.309 44.1515 388.771 43.7652 389.074 43.25C389.384 42.7348 389.54 42.0947 389.54 41.3295C389.54 40.5568 389.384 39.9053 389.074 39.375C388.771 38.8447 388.305 38.4432 387.676 38.1705C387.055 37.8902 386.271 37.75 385.324 37.75H382.006V57H377.085ZM389.653 46.4091L395.438 57H390.006L384.347 46.4091H389.653ZM395.753 33.7273H401.264L406.571 43.75H406.798L412.105 33.7273H417.616L409.128 48.7727V57H404.241V48.7727L395.753 33.7273Z" fill="black"/>
</svg>
