<svg width="841" height="90" viewBox="0 0 841 90" fill="none" xmlns="http://www.w3.org/2000/svg">
    <path d="M3.79261 67V23.3636H32.6847V30.9702H13.0185V41.3679H30.767V48.9744H13.0185V67H3.79261ZM124.59 45.1818C124.59 49.9403 123.688 53.9886 121.884 57.3267C120.094 60.6648 117.651 63.2145 114.554 64.9759C111.472 66.723 108.006 67.5966 104.156 67.5966C100.279 67.5966 96.7985 66.7159 93.7161 64.9545C90.6337 63.1932 88.1977 60.6435 86.4079 57.3054C84.6181 53.9673 83.7232 49.9261 83.7232 45.1818C83.7232 40.4233 84.6181 36.375 86.4079 33.0369C88.1977 29.6989 90.6337 27.1562 93.7161 25.4091C96.7985 23.6477 100.279 22.767 104.156 22.767C108.006 22.767 111.472 23.6477 114.554 25.4091C117.651 27.1562 120.094 29.6989 121.884 33.0369C123.688 36.375 124.59 40.4233 124.59 45.1818ZM115.236 45.1818C115.236 42.0994 114.774 39.5 113.851 37.3835C112.942 35.267 111.656 33.6619 109.995 32.5682C108.333 31.4744 106.387 30.9276 104.156 30.9276C101.926 30.9276 99.9803 31.4744 98.3184 32.5682C96.6565 33.6619 95.3638 35.267 94.4406 37.3835C93.5315 39.5 93.0769 42.0994 93.0769 45.1818C93.0769 48.2642 93.5315 50.8636 94.4406 52.9801C95.3638 55.0966 96.6565 56.7017 98.3184 57.7955C99.9803 58.8892 101.926 59.4361 104.156 59.4361C106.387 59.4361 108.333 58.8892 109.995 57.7955C111.656 56.7017 112.942 55.0966 113.851 52.9801C114.774 50.8636 115.236 48.2642 115.236 45.1818ZM177.024 67V23.3636H186.25V59.3935H204.957V67H177.024ZM256.667 67V23.3636H265.893V59.3935H284.6V67H256.667ZM374.71 45.1818C374.71 49.9403 373.808 53.9886 372.004 57.3267C370.214 60.6648 367.771 63.2145 364.674 64.9759C361.592 66.723 358.126 67.5966 354.277 67.5966C350.399 67.5966 346.919 66.7159 343.836 64.9545C340.754 63.1932 338.318 60.6435 336.528 57.3054C334.738 53.9673 333.844 49.9261 333.844 45.1818C333.844 40.4233 334.738 36.375 336.528 33.0369C338.318 29.6989 340.754 27.1562 343.836 25.4091C346.919 23.6477 350.399 22.767 354.277 22.767C358.126 22.767 361.592 23.6477 364.674 25.4091C367.771 27.1562 370.214 29.6989 372.004 33.0369C373.808 36.375 374.71 40.4233 374.71 45.1818ZM365.356 45.1818C365.356 42.0994 364.895 39.5 363.971 37.3835C363.062 35.267 361.777 33.6619 360.115 32.5682C358.453 31.4744 356.507 30.9276 354.277 30.9276C352.047 30.9276 350.101 31.4744 348.439 32.5682C346.777 33.6619 345.484 35.267 344.561 37.3835C343.652 39.5 343.197 42.0994 343.197 45.1818C343.197 48.2642 343.652 50.8636 344.561 52.9801C345.484 55.0966 346.777 56.7017 348.439 57.7955C350.101 58.8892 352.047 59.4361 354.277 59.4361C356.507 59.4361 358.453 58.8892 360.115 57.7955C361.777 56.7017 363.062 55.0966 363.971 52.9801C364.895 50.8636 365.356 48.2642 365.356 45.1818ZM435.326 67L422.84 23.3636H432.918L440.141 53.6832H440.504L448.472 23.3636H457.102L465.049 53.7472H465.433L472.656 23.3636H482.734L470.248 67H461.256L452.947 38.4702H452.606L444.317 67H435.326ZM560.225 23.3636H569.45V51.7017C569.45 54.8835 568.691 57.6676 567.171 60.054C565.665 62.4403 563.556 64.3011 560.843 65.6364C558.129 66.9574 554.969 67.6179 551.361 67.6179C547.739 67.6179 544.571 66.9574 541.858 65.6364C539.145 64.3011 537.036 62.4403 535.53 60.054C534.024 57.6676 533.271 54.8835 533.271 51.7017V23.3636H542.497V50.9134C542.497 52.5753 542.86 54.0526 543.584 55.3452C544.323 56.6378 545.36 57.6534 546.695 58.392C548.03 59.1307 549.585 59.5 551.361 59.5C553.151 59.5 554.706 59.1307 556.027 58.392C557.362 57.6534 558.392 56.6378 559.117 55.3452C559.855 54.0526 560.225 52.5753 560.225 50.9134V23.3636ZM646.313 35.9134C646.142 34.1946 645.411 32.8594 644.118 31.9077C642.826 30.956 641.071 30.4801 638.856 30.4801C637.35 30.4801 636.079 30.6932 635.042 31.1193C634.005 31.5312 633.209 32.1065 632.655 32.8452C632.115 33.5838 631.846 34.4219 631.846 35.3594C631.817 36.1406 631.981 36.8224 632.336 37.4048C632.705 37.9872 633.209 38.4915 633.848 38.9176C634.488 39.3295 635.226 39.6918 636.064 40.0043C636.902 40.3026 637.797 40.5582 638.749 40.7713L642.669 41.7088C644.573 42.1349 646.32 42.7031 647.911 43.4134C649.502 44.1236 650.88 44.9972 652.044 46.0341C653.209 47.071 654.111 48.2926 654.75 49.6989C655.404 51.1051 655.738 52.7173 655.752 54.5355C655.738 57.206 655.056 59.5213 653.706 61.4815C652.371 63.4276 650.439 64.9403 647.911 66.0199C645.397 67.0852 642.364 67.6179 638.813 67.6179C635.29 67.6179 632.222 67.0781 629.608 65.9986C627.009 64.919 624.978 63.321 623.515 61.2045C622.066 59.0739 621.306 56.4389 621.235 53.2997H630.162C630.262 54.7628 630.681 55.9844 631.419 56.9645C632.172 57.9304 633.174 58.6619 634.424 59.1591C635.688 59.642 637.115 59.8835 638.706 59.8835C640.269 59.8835 641.625 59.6562 642.776 59.2017C643.941 58.7472 644.843 58.1151 645.482 57.3054C646.121 56.4957 646.441 55.5653 646.441 54.5142C646.441 53.5341 646.15 52.7102 645.567 52.0426C644.999 51.375 644.161 50.8068 643.053 50.3381C641.959 49.8693 640.617 49.4432 639.026 49.0597L634.275 47.8665C630.596 46.9716 627.691 45.5724 625.56 43.669C623.429 41.7656 622.371 39.2017 622.385 35.9773C622.371 33.3352 623.074 31.027 624.495 29.0526C625.929 27.0781 627.897 25.5369 630.397 24.429C632.897 23.321 635.738 22.767 638.919 22.767C642.158 22.767 644.985 23.321 647.4 24.429C649.829 25.5369 651.718 27.0781 653.067 29.0526C654.417 31.027 655.113 33.3139 655.155 35.9134H646.313ZM747.657 45.1818C747.657 49.9403 746.755 53.9886 744.951 57.3267C743.161 60.6648 740.718 63.2145 737.621 64.9759C734.539 66.723 731.073 67.5966 727.224 67.5966C723.346 67.5966 719.866 66.7159 716.783 64.9545C713.701 63.1932 711.265 60.6435 709.475 57.3054C707.685 53.9673 706.79 49.9261 706.79 45.1818C706.79 40.4233 707.685 36.375 709.475 33.0369C711.265 29.6989 713.701 27.1562 716.783 25.4091C719.866 23.6477 723.346 22.767 727.224 22.767C731.073 22.767 734.539 23.6477 737.621 25.4091C740.718 27.1562 743.161 29.6989 744.951 33.0369C746.755 36.375 747.657 40.4233 747.657 45.1818ZM738.303 45.1818C738.303 42.0994 737.842 39.5 736.918 37.3835C736.009 35.267 734.724 33.6619 733.062 32.5682C731.4 31.4744 729.454 30.9276 727.224 30.9276C724.994 30.9276 723.048 31.4744 721.386 32.5682C719.724 33.6619 718.431 35.267 717.508 37.3835C716.599 39.5 716.144 42.0994 716.144 45.1818C716.144 48.2642 716.599 50.8636 717.508 52.9801C718.431 55.0966 719.724 56.7017 721.386 57.7955C723.048 58.8892 724.994 59.4361 727.224 59.4361C729.454 59.4361 731.4 58.8892 733.062 57.7955C734.724 56.7017 736.009 55.0966 736.918 52.9801C737.842 50.8636 738.303 48.2642 738.303 45.1818ZM836.59 23.3636V67H828.621L809.636 39.5355H809.317V67H800.091V23.3636H808.188L827.023 50.8068H827.406V23.3636H836.59Z" fill="#939393" fill-opacity="0.16"/>
    <path d="M299.023 57V33.7273H314.432V37.7841H303.943V43.3295H313.409V47.3864H303.943V57H299.023ZM339.128 45.3636C339.128 47.9015 338.647 50.0606 337.685 51.8409C336.73 53.6212 335.427 54.9811 333.776 55.9205C332.132 56.8523 330.283 57.3182 328.23 57.3182C326.162 57.3182 324.306 56.8485 322.662 55.9091C321.018 54.9697 319.719 53.6098 318.764 51.8295C317.81 50.0492 317.332 47.8939 317.332 45.3636C317.332 42.8258 317.81 40.6667 318.764 38.8864C319.719 37.1061 321.018 35.75 322.662 34.8182C324.306 33.8788 326.162 33.4091 328.23 33.4091C330.283 33.4091 332.132 33.8788 333.776 34.8182C335.427 35.75 336.73 37.1061 337.685 38.8864C338.647 40.6667 339.128 42.8258 339.128 45.3636ZM334.139 45.3636C334.139 43.7197 333.893 42.3333 333.401 41.2045C332.916 40.0758 332.23 39.2197 331.344 38.6364C330.457 38.053 329.42 37.7614 328.23 37.7614C327.041 37.7614 326.003 38.053 325.116 38.6364C324.23 39.2197 323.541 40.0758 323.048 41.2045C322.563 42.3333 322.321 43.7197 322.321 45.3636C322.321 47.0076 322.563 48.3939 323.048 49.5227C323.541 50.6515 324.23 51.5076 325.116 52.0909C326.003 52.6742 327.041 52.9659 328.23 52.9659C329.42 52.9659 330.457 52.6742 331.344 52.0909C332.23 51.5076 332.916 50.6515 333.401 49.5227C333.893 48.3939 334.139 47.0076 334.139 45.3636ZM342.773 57V33.7273H347.693V52.9432H357.67V57H342.773ZM360.929 57V33.7273H365.849V52.9432H375.827V57H360.929ZM399.565 45.3636C399.565 47.9015 399.084 50.0606 398.122 51.8409C397.168 53.6212 395.865 54.9811 394.213 55.9205C392.569 56.8523 390.721 57.3182 388.668 57.3182C386.599 57.3182 384.743 56.8485 383.099 55.9091C381.455 54.9697 380.156 53.6098 379.202 51.8295C378.247 50.0492 377.77 47.8939 377.77 45.3636C377.77 42.8258 378.247 40.6667 379.202 38.8864C380.156 37.1061 381.455 35.75 383.099 34.8182C384.743 33.8788 386.599 33.4091 388.668 33.4091C390.721 33.4091 392.569 33.8788 394.213 34.8182C395.865 35.75 397.168 37.1061 398.122 38.8864C399.084 40.6667 399.565 42.8258 399.565 45.3636ZM394.577 45.3636C394.577 43.7197 394.33 42.3333 393.838 41.2045C393.353 40.0758 392.668 39.2197 391.781 38.6364C390.895 38.053 389.857 37.7614 388.668 37.7614C387.478 37.7614 386.44 38.053 385.554 38.6364C384.668 39.2197 383.978 40.0758 383.486 41.2045C383.001 42.3333 382.759 43.7197 382.759 45.3636C382.759 47.0076 383.001 48.3939 383.486 49.5227C383.978 50.6515 384.668 51.5076 385.554 52.0909C386.44 52.6742 387.478 52.9659 388.668 52.9659C389.857 52.9659 390.895 52.6742 391.781 52.0909C392.668 51.5076 393.353 50.6515 393.838 49.5227C394.33 48.3939 394.577 47.0076 394.577 45.3636ZM407.574 57L400.915 33.7273H406.29L410.142 49.8977H410.335L414.585 33.7273H419.188L423.426 49.9318H423.631L427.483 33.7273H432.858L426.199 57H421.403L416.972 41.7841H416.79L412.369 57H407.574ZM457.273 33.7273H462.193V48.8409C462.193 50.5379 461.788 52.0227 460.977 53.2955C460.174 54.5682 459.049 55.5606 457.602 56.2727C456.155 56.9773 454.47 57.3295 452.545 57.3295C450.614 57.3295 448.924 56.9773 447.477 56.2727C446.03 55.5606 444.905 54.5682 444.102 53.2955C443.299 52.0227 442.898 50.5379 442.898 48.8409V33.7273H447.818V48.4205C447.818 49.3068 448.011 50.0947 448.398 50.7841C448.792 51.4735 449.345 52.0152 450.057 52.4091C450.769 52.803 451.598 53 452.545 53C453.5 53 454.33 52.803 455.034 52.4091C455.746 52.0152 456.295 51.4735 456.682 50.7841C457.076 50.0947 457.273 49.3068 457.273 48.4205V33.7273ZM478.866 40.4205C478.776 39.5038 478.385 38.7917 477.696 38.2841C477.007 37.7765 476.071 37.5227 474.889 37.5227C474.086 37.5227 473.408 37.6364 472.855 37.8636C472.302 38.0833 471.878 38.3902 471.582 38.7841C471.295 39.178 471.151 39.625 471.151 40.125C471.135 40.5417 471.223 40.9053 471.412 41.2159C471.609 41.5265 471.878 41.7955 472.219 42.0227C472.56 42.2424 472.954 42.4356 473.401 42.6023C473.848 42.7614 474.325 42.8977 474.832 43.0114L476.923 43.5114C477.938 43.7386 478.87 44.0417 479.719 44.4205C480.567 44.7992 481.302 45.2652 481.923 45.8182C482.545 46.3712 483.026 47.0227 483.366 47.7727C483.715 48.5227 483.893 49.3826 483.901 50.3523C483.893 51.7765 483.529 53.0114 482.81 54.0568C482.098 55.0947 481.067 55.9015 479.719 56.4773C478.378 57.0455 476.76 57.3295 474.866 57.3295C472.988 57.3295 471.351 57.0417 469.957 56.4659C468.571 55.8902 467.488 55.0379 466.707 53.9091C465.935 52.7727 465.529 51.3674 465.491 49.6932H470.253C470.306 50.4735 470.529 51.125 470.923 51.6477C471.325 52.1629 471.859 52.553 472.526 52.8182C473.2 53.0758 473.961 53.2045 474.81 53.2045C475.643 53.2045 476.366 53.0833 476.98 52.8409C477.601 52.5985 478.082 52.2614 478.423 51.8295C478.764 51.3977 478.935 50.9015 478.935 50.3409C478.935 49.8182 478.779 49.3788 478.469 49.0227C478.166 48.6667 477.719 48.3636 477.128 48.1136C476.545 47.8636 475.829 47.6364 474.98 47.4318L472.446 46.7955C470.484 46.3182 468.935 45.572 467.798 44.5568C466.662 43.5417 466.098 42.1742 466.105 40.4545C466.098 39.0455 466.473 37.8144 467.23 36.7614C467.995 35.7083 469.045 34.8864 470.378 34.2955C471.711 33.7045 473.226 33.4091 474.923 33.4091C476.651 33.4091 478.158 33.7045 479.446 34.2955C480.741 34.8864 481.749 35.7083 482.469 36.7614C483.188 37.8144 483.56 39.0341 483.582 40.4205H478.866ZM516.003 45.3636C516.003 47.9015 515.522 50.0606 514.56 51.8409C513.605 53.6212 512.302 54.9811 510.651 55.9205C509.007 56.8523 507.158 57.3182 505.105 57.3182C503.037 57.3182 501.181 56.8485 499.537 55.9091C497.893 54.9697 496.594 53.6098 495.639 51.8295C494.685 50.0492 494.207 47.8939 494.207 45.3636C494.207 42.8258 494.685 40.6667 495.639 38.8864C496.594 37.1061 497.893 35.75 499.537 34.8182C501.181 33.8788 503.037 33.4091 505.105 33.4091C507.158 33.4091 509.007 33.8788 510.651 34.8182C512.302 35.75 513.605 37.1061 514.56 38.8864C515.522 40.6667 516.003 42.8258 516.003 45.3636ZM511.014 45.3636C511.014 43.7197 510.768 42.3333 510.276 41.2045C509.791 40.0758 509.105 39.2197 508.219 38.6364C507.332 38.053 506.295 37.7614 505.105 37.7614C503.916 37.7614 502.878 38.053 501.991 38.6364C501.105 39.2197 500.416 40.0758 499.923 41.2045C499.438 42.3333 499.196 43.7197 499.196 45.3636C499.196 47.0076 499.438 48.3939 499.923 49.5227C500.416 50.6515 501.105 51.5076 501.991 52.0909C502.878 52.6742 503.916 52.9659 505.105 52.9659C506.295 52.9659 507.332 52.6742 508.219 52.0909C509.105 51.5076 509.791 50.6515 510.276 49.5227C510.768 48.3939 511.014 47.0076 511.014 45.3636ZM539.114 33.7273V57H534.864L524.739 42.3523H524.568V57H519.648V33.7273H523.966L534.011 48.3636H534.216V33.7273H539.114Z" fill="white"/>
</svg>
